<svg version="1.1" xmlns="http://www.w3.org/2000/svg" viewBox="0 0 1024 1024"><path d="M570.368 177.079c-6.144-2.048-12.288 1.024-14.336 7.168l-223.232 688.128c-2.048 6.144 1.024 12.288 7.168 14.336s12.288-1.024 14.336-7.168l223.232-688.128c2.048-6.144-1.024-12.288-7.168-14.336zM607.232 283.575c-6.144-2.048-12.288 1.024-14.336 7.168l-167.936 517.12c-2.048 6.144 1.024 12.288 7.168 14.336s12.288-1.024 14.336-7.168l167.936-518.144c2.048-5.12-1.024-11.264-7.168-13.312zM643.072 391.095c-6.144-2.048-12.288 1.024-14.336 7.168l-110.592 344.064c-2.048 6.144 1.024 12.288 7.168 14.336s12.288-1.024 14.336-7.168l111.616-343.040c1.024-7.168-2.048-13.312-8.192-15.36zM714.752 393.143c-6.144-2.048-12.288 1.024-14.336 7.168l-123.904 381.952c-2.048 6.144 1.024 12.288 7.168 14.336s12.288-1.024 14.336-7.168l123.904-381.952c1.024-6.144-2.048-12.288-7.168-14.336zM705.536 640.951c-6.144-2.048-12.288 1.024-14.336 7.168l-56.32 174.080c-2.048 6.144 1.024 12.288 7.168 14.336s12.288-1.024 14.336-7.168l56.32-175.104c2.048-5.12-1.024-11.264-7.168-13.312zM785.408 395.191c-6.144-2.048-12.288 1.024-14.336 7.168l-54.272 168.96c-2.048 6.144 1.024 12.288 7.168 14.336s12.288-1.024 14.336-7.168l54.272-169.984c2.048-5.12-1.024-12.288-7.168-13.312zM747.52 722.871c-6.144-2.048-12.288 1.024-14.336 7.168l-43.008 131.072c-2.048 6.144 1.024 12.288 7.168 14.336s12.288-1.024 14.336-7.168l43.008-131.072c2.048-6.144-1.024-12.288-7.168-14.336zM855.040 396.215c-6.144-2.048-12.288 2.048-13.312 7.168l-35.84 123.904c-2.048 6.144 2.048 12.288 7.168 13.312 6.144 2.048 12.288-2.048 13.312-7.168l35.84-123.904c2.048-5.12-1.024-11.264-7.168-13.312zM784.384 836.535c-6.144-2.048-12.288 1.024-14.336 7.168l-19.456 59.392c-2.048 6.144 1.024 12.288 7.168 14.336s12.288-1.024 14.336-7.168l19.456-59.392c2.048-6.144-1.024-12.288-7.168-14.336zM926.72 397.239c-6.144-2.048-12.288 1.024-14.336 7.168l-19.456 59.392c-2.048 6.144 1.024 12.288 7.168 14.336s12.288-1.024 14.336-7.168l19.456-59.392c2.048-6.144-1.024-12.288-7.168-14.336zM533.504 71.607c-6.144-2.048-12.288 1.024-14.336 7.168l-124.928 384-90.112-68.608c-5.12-4.096-12.288-3.072-16.384 2.048s-3.072 12.288 2.048 16.384l96.256 72.704-13.312 41.984-175.104-133.12c-5.12-4.096-12.288-3.072-16.384 2.048s-3.072 12.288 2.048 16.384l181.248 138.24-14.336 43.008-263.168-198.656c-5.12-4.096-12.288-3.072-15.36 2.048-4.096 5.12-3.072 12.288 2.048 15.36l271.36 203.776-104.448 320.512c-2.048 6.144 1.024 12.288 7.168 14.336s12.288-1.024 14.336-7.168l278.528-859.136c2.048-6.144-1.024-12.288-7.168-13.312z"></path></svg>