<svg version="1.1" xmlns="http://www.w3.org/2000/svg" fill="#fff" viewBox="0 0 1024 1024"><path d="M932.086 970.495c-7.803 0-15.145-3.031-20.634-8.54l-165.304-165.407-13.343 10.496c-68.311 53.791-153.58 83.415-240.087 83.415-104.018 0.041-201.667-40.387-275.139-113.848-73.523-73.452-113.992-171.1-113.951-274.964-0.041-103.864 40.428-201.503 113.94-274.954 73.421-73.492 170.957-113.951 274.616-113.951 104.294 0 201.83 40.458 275.272 113.93 73.513 73.472 113.951 171.1 113.91 274.975 0.041 86.641-29.583 171.93-83.405 240.23l-10.516 13.322 165.304 165.417c5.54 5.55 8.581 12.892 8.581 20.695 0 7.782-3.041 15.124-8.561 20.623-5.519 5.53-12.872 8.561-20.685 8.561v0zM492.483 171.171c-88.269 0.082-171.213 34.458-233.585 96.799-62.413 62.474-96.778 145.439-96.84 233.677 0.061 88.228 34.427 171.223 96.84 233.626 62.413 62.362 145.367 96.696 233.636 96.737 88.248-0.041 171.223-34.376 233.605-96.717 62.362-62.362 96.717-145.316 96.799-233.626-0.082-88.279-34.437-171.254-96.778-233.677-62.413-62.362-145.377-96.737-233.646-96.819h-0.031z"></path></svg>